# xmcd CD database file generated by freedbAccess_ocx
#
# Track frame offsets:
#       225
#       14687
#       30990
#       42537
#       54707
#       69597
#       85826
#       100778
#       118852
#       131892
#       146207
#       164457
#       176906
#       198912
#       217376
#
# Disc length: 3156 seconds
#
# Revision: 0
# Processed by: cddbd v1.4PL0 Copyright (c) Steve Scherf et al.
# Submitted via: CDnGo 2.00
#
DISCID=ed0c510f
DTITLE=Taxmeni - Desperados
DYEAR=1999
DGENRE=Country
TTITLE0=Johnny Reb
TTITLE1=Hobo Song
TTITLE2=Jezdec dalky
TTITLE3=Verny kamarad
TTITLE4=Buh musel mit snad srdce kovboje
TTITLE5=Nejvetsi ten kovboj co jsem znal
TTITLE6=Balada o Jed Clampettovi
TTITLE7=Vzpominky na stary casy
TTITLE8=Na sever! Na Aljasku
TTITLE9=Karta k svatku
TTITLE10=Tulak po hvezdach
TTITLE11=Kazdy z pratel uz to vzdal
TTITLE12=Pozdrav cerneho korzara
TTITLE13=Jo vsichni to maj
TTITLE14=Desperados co vlak cekaji
EXTD=
EXTT0=
EXTT1=
EXTT2=
EXTT3=
EXTT4=
EXTT5=
EXTT6=
EXTT7=
EXTT8=
EXTT9=
EXTT10=
EXTT11=
EXTT12=
EXTT13=
EXTT14=
PLAYORDER=
